<?xml version="1.0" standalone="no"?>
<!DOCTYPE svg PUBLIC "-//W3C//DTD SVG 20010904//EN"
 "http://www.w3.org/TR/2001/REC-SVG-20010904/DTD/svg10.dtd">
<svg version="1.0" xmlns="http://www.w3.org/2000/svg"
 width="393.000000pt" height="128.000000pt" viewBox="0 0 393.000000 128.000000"
 preserveAspectRatio="xMidYMid meet">
<metadata>
Created by potrace 1.13, written by Peter Selinger 2001-2015
</metadata>
<g transform="translate(0.000000,128.000000) scale(0.100000,-0.100000)"
fill="#000000" stroke="none">
<path d="M730 1270 c-77 -16 -205 -88 -307 -174 -257 -215 -425 -533 -410
-774 9 -153 79 -242 218 -278 81 -21 151 -12 409 52 165 41 198 47 305 48 112
1 124 -1 177 -27 31 -15 71 -44 88 -63 l31 -35 34 30 c37 32 90 51 145 51 57
0 160 -29 219 -61 l55 -29 -34 35 c-54 56 -178 137 -249 163 -83 30 -218 39
-330 23 -46 -7 -185 -37 -310 -67 -334 -82 -432 -83 -523 -6 -66 56 -86 171
-52 311 42 176 218 458 384 614 131 123 270 176 278 106 3 -22 -2 -29 -27 -37
-59 -21 -85 -113 -33 -120 46 -7 102 75 102 147 0 79 -62 112 -170 91z"/>
<path d="M2567 1255 c-317 -117 -679 -554 -754 -910 -32 -152 33 -291 146
-310 128 -21 315 120 415 315 102 197 79 336 -51 302 -120 -33 -218 -160 -248
-326 l-8 -39 53 42 c29 23 66 49 82 57 15 8 28 22 28 32 0 30 46 116 80 150
23 24 40 32 59 30 24 -3 26 -7 29 -54 9 -158 -193 -417 -326 -418 -23 0 -41 9
-64 32 -112 111 30 468 320 806 135 157 329 289 380 257 9 -5 1 -16 -28 -36
-157 -109 -276 -328 -215 -395 23 -25 48 -25 102 1 102 49 223 252 223 374 0
44 19 49 95 30 60 -16 100 -37 253 -135 l83 -54 47 48 c46 46 46 47 27 62 -44
33 -221 128 -263 140 -60 19 -158 18 -215 -2 -42 -14 -48 -14 -69 0 -28 20
-128 20 -181 1z m183 -108 c0 -126 -156 -345 -240 -335 -82 10 24 211 173 329
27 22 53 39 58 39 5 0 9 -15 9 -33z"/>
<path d="M3506 1225 c-180 -108 -409 -387 -567 -690 -35 -66 -67 -123 -73
-127 -13 -9 -56 -11 -56 -3 0 3 7 22 16 43 51 122 31 212 -48 212 -45 0 -130
-50 -192 -112 -123 -124 -205 -277 -214 -400 -4 -62 -3 -68 22 -93 23 -23 33
-26 63 -22 76 13 189 111 270 236 21 33 43 66 48 75 6 8 27 18 47 21 l37 7
-30 -91 c-32 -101 -38 -184 -14 -218 36 -51 107 -33 185 48 l50 52 0 -46 c0
-103 88 -111 188 -18 37 34 47 39 38 16 -9 -25 14 -75 39 -81 57 -14 198 103
294 245 45 66 47 71 27 71 -8 0 -34 -28 -59 -63 -75 -105 -157 -167 -157 -119
0 10 58 119 129 242 l129 225 -55 3 c-32 2 -61 -2 -69 -9 -12 -10 -19 -7 -39
11 -70 65 -214 -48 -384 -300 -87 -130 -146 -200 -168 -200 -7 0 -17 9 -23 20
-13 24 0 84 40 189 28 70 36 80 92 121 116 84 375 352 419 433 18 32 -24 19
-48 -16 -64 -92 -316 -346 -377 -379 -39 -21 133 272 258 440 101 135 241 272
279 272 14 0 7 -51 -13 -90 -22 -43 -12 -52 19 -21 30 30 47 95 33 126 -17 37
-64 33 -136 -10z m-695 -636 c14 -28 5 -86 -23 -143 -21 -44 -22 -45 -50 -30
-37 19 -61 67 -53 104 7 34 67 90 95 90 11 0 24 -10 31 -21z m704 0 c14 -22
-216 -396 -262 -426 -57 -38 -69 18 -24 114 85 180 254 364 286 312z m-839
-166 c22 -21 47 -42 57 -48 17 -9 15 -15 -22 -72 -78 -120 -157 -179 -188
-138 -18 26 -16 51 11 117 18 45 95 177 102 178 1 0 19 -17 40 -37z"/>
<path d="M3858 1217 c-105 -94 -246 -156 -354 -157 -66 0 -57 6 -138 -99 -9
-11 5 -13 86 -9 89 4 102 7 184 47 69 35 105 61 164 120 60 62 123 143 108
141 -2 -1 -24 -20 -50 -43z"/>
<path d="M762 945 c-30 -14 -83 -53 -119 -87 -119 -115 -191 -235 -214 -361
-11 -58 -10 -68 7 -103 26 -52 58 -63 120 -39 66 25 177 134 248 243 41 63 66
92 83 97 14 3 27 4 29 2 3 -2 -9 -31 -25 -63 -54 -109 -61 -176 -26 -244 15
-28 53 -50 89 -50 50 0 117 34 190 97 82 69 81 70 60 -8 -7 -25 13 -66 37 -79
32 -18 78 -4 137 40 l52 40 0 -29 c0 -31 27 -61 54 -61 55 0 168 97 269 230
44 59 53 76 40 79 -10 2 -29 -12 -47 -35 -41 -54 -143 -154 -156 -154 -31 0
-10 48 109 254 72 124 131 227 131 230 0 4 -27 6 -60 6 -34 0 -60 -4 -60 -10
0 -6 -13 -1 -29 11 -75 55 -195 -32 -366 -266 -127 -174 -214 -255 -276 -255
-67 0 -71 78 -11 201 76 156 193 284 252 277 37 -4 39 -36 1 -49 -35 -12 -61
-48 -61 -84 0 -57 65 -35 100 35 29 57 27 113 -6 139 -57 45 -134 16 -252 -93
-80 -75 -148 -126 -169 -126 -8 0 -6 16 8 55 27 77 25 130 -6 160 -31 32 -65
32 -133 0z m103 -42 c33 -33 -4 -173 -45 -173 -27 0 -80 52 -80 78 0 27 41 84
70 99 32 16 35 16 55 -4z m810 -3 c7 -12 -133 -260 -200 -355 -45 -64 -83 -92
-110 -81 -22 8 -13 51 31 138 37 74 170 256 211 287 28 23 58 27 68 11z m-944
-156 c13 -15 39 -33 56 -40 l33 -14 -38 -61 c-46 -75 -125 -157 -159 -165 -35
-9 -56 19 -49 64 9 58 104 242 125 242 4 0 18 -12 32 -26z"/>
</g>
</svg>
